<?xml version="1.0" encoding="utf-8"?>
<!-- Generator: Adobe Illustrator 21.1.0, SVG Export Plug-In . SVG Version: 6.00 Build 0)  -->
<svg version="1.1" id="图层_1" xmlns="http://www.w3.org/2000/svg" xmlns:xlink="http://www.w3.org/1999/xlink" x="0px" y="0px"
	 viewBox="0 0 29 29" style="enable-background:new 0 0 29 29;" xml:space="preserve">
<title>Fill 57</title>
<desc>Created with Sketch.</desc>
<g id="Page-1">
	<g id="创建加工单-填写完整" transform="translate(-101.000000, -455.000000)">
		<g id="con" transform="translate(0.000000, 72.000000)">
			<g id="产品照片" transform="translate(0.000000, 324.000000)">
				<g id="添加-copy" transform="translate(86.000000, 44.000000)">
					<path id="Fill-57" d="M16,30.5c-0.4-0.3-0.5-0.4-0.5-0.5v-1c0-0.1,0.1-0.2,0.5-0.5h12.5V16c0.3-0.4,0.4-0.5,0.5-0.5h1
						c0.1,0,0.2,0.1,0.5,0.5v12.5H43c0.4,0.3,0.5,0.4,0.5,0.5v1c0,0.1-0.1,0.2-0.5,0.5H30.5V43c-0.3,0.4-0.4,0.5-0.5,0.5h-1
						c-0.1,0-0.2-0.1-0.5-0.5V30.5H16z"/>
				</g>
			</g>
		</g>
	</g>
</g>
</svg>
