<?xml version="1.0" encoding="utf-8"?>
<!-- Generator: Adobe Illustrator 21.1.0, SVG Export Plug-In . SVG Version: 6.00 Build 0)  -->
<svg version="1.1" id="图层_1" xmlns="http://www.w3.org/2000/svg" xmlns:xlink="http://www.w3.org/1999/xlink" x="0px" y="0px"
	 viewBox="0 0 9 43" style="enable-background:new 0 0 9 43;" xml:space="preserve">
<title>Path</title>
<desc>Created with Sketch.</desc>
<g id="Page-1">
	<g id="租赁设备-失败" transform="translate(-184.000000, -138.000000)">
		<g id="反馈区域" transform="translate(90.000000, 114.000000)">
			<g id="大图标_x2F_警告" transform="translate(53.000000, 0.000000)">
				<path id="Path-" d="M44.1,24.8h2.7c1.1,0,2,0.9,1.9,2l-1,27.5c0,0.5-0.5,1-1,1h-2.5c-0.6,0-1-0.4-1-1l-1-27.5
					C42.2,25.7,43,24.8,44.1,24.8z M45.5,66.2c-1.9,0-3.4-1.5-3.4-3.4s1.5-3.4,3.4-3.4s3.4,1.5,3.4,3.4S47.4,66.2,45.5,66.2z"/>
			</g>
		</g>
	</g>
</g>
</svg>
