<?xml version="1.0" encoding="utf-8"?>
<!-- Generator: Adobe Illustrator 21.1.0, SVG Export Plug-In . SVG Version: 6.00 Build 0)  -->
<svg version="1.1" id="图层_1" xmlns="http://www.w3.org/2000/svg" xmlns:xlink="http://www.w3.org/1999/xlink" x="0px" y="0px"
	 viewBox="0 0 12 9" style="enable-background:new 0 0 12 9;" xml:space="preserve">
<title>Fill</title>
<desc>Created with Sketch.</desc>
<g id="Page-1">
	<g id="地址管理" transform="translate(-19.000000, -162.000000)">
		<g id="con" transform="translate(0.000000, 72.000000)">
			<g id="地址信息">
				<g id="默认地址">
					<g id="功能" transform="translate(0.000000, 74.000000)">
						<g id="小图标_x2F_多选_x2F_已勾选" transform="translate(14.000000, 10.000000)">
							<path id="Fill-" d="M5.7,11.8c-0.4-0.4-0.4-1.1-0.1-1.5L5.1,11c0.3-0.4,1-0.5,1.4-0.2L8.1,12c0.4,0.3,1.1,0.3,1.6,0l5.9-4.9
								c0.4-0.4,1.1-0.3,1.4,0l-0.6-0.6c0.4,0.3,0.3,0.9-0.1,1.3l-6.6,6.5c-0.4,0.4-1,0.4-1.4,0L5.7,11.8z"/>
						</g>
					</g>
				</g>
			</g>
		</g>
	</g>
</g>
</svg>
