<?xml version="1.0" encoding="utf-8"?>
<!-- Generator: Adobe Illustrator 21.1.0, SVG Export Plug-In . SVG Version: 6.00 Build 0)  -->
<svg version="1.1" id="图层_1" xmlns="http://www.w3.org/2000/svg" xmlns:xlink="http://www.w3.org/1999/xlink" x="0px" y="0px"
	 viewBox="0 0 14 14" style="enable-background:new 0 0 14 14;" xml:space="preserve">
<title>认证</title>
<desc>Created with Sketch.</desc>
<g id="Page-1">
	<g id="维修单详情-待维修" transform="translate(-69.000000, -441.000000)">
		<g id="con" transform="translate(0.000000, 74.000000)">
			<g id="维修师傅" transform="translate(0.000000, 296.000000)">
				<g id="个人认证" transform="translate(69.000000, 69.000000)">
					<g id="认证" transform="translate(0.000000, 2.000000)">
						<path id="Combined-Shape" d="M12.8,7.1c0,3.1-2.6,5.7-5.8,5.7c-3.1,0-5.7-2.6-5.7-5.7c0-3.2,2.6-5.8,5.7-5.8
							C10.2,1.2,12.8,3.8,12.8,7.1z M12.2,7.1c0-3-2.4-5.3-5.3-5.3c-2.9,0-5.2,2.4-5.2,5.3c0,2.8,2.4,5.2,5.2,5.2
							C9.9,12.2,12.2,9.9,12.2,7.1z M3.6,7.1C3.8,7,4,6.9,4.1,7.1c0,0,0,0,0,0l1.1,0.8l0,0c0.4,0.3,0.9,0.3,1.2,0l3.8-3.2l0,0
							c0.1-0.1,0.3-0.1,0.4,0l0,0l0,0c0.1,0.1,0.1,0.3,0,0.4c0,0,0,0,0,0L6.6,9.2c-0.4,0.4-1,0.4-1.4,0c0,0,0,0,0,0L3.7,7.6l0,0
							C3.5,7.5,3.5,7.3,3.6,7.1z"/>
					</g>
				</g>
			</g>
		</g>
	</g>
</g>
</svg>
