<?xml version="1.0" encoding="utf-8"?>
<!-- Generator: Adobe Illustrator 21.1.0, SVG Export Plug-In . SVG Version: 6.00 Build 0)  -->
<svg version="1.1" id="图层_1" xmlns="http://www.w3.org/2000/svg" xmlns:xlink="http://www.w3.org/1999/xlink" x="0px" y="0px"
	 viewBox="0 0 51 41" style="enable-background:new 0 0 51 41;" xml:space="preserve">
<title>diamond [#767]</title>
<desc>Created with Sketch.</desc>
<g id="Page-1">
	<g id="我的余额" transform="translate(-163.000000, -140.000000)">
		<g id="反馈区域" transform="translate(130.000000, 114.000000)">
			<g id="大图标_x2F_警告" transform="translate(13.000000, 0.000000)">
				<path id="diamond-_x5B__x23_767_x5D_" d="M47.3,59.6c-1,1.1-2.8,1.2-3.8,0.1L28.1,43.9h34.4L47.3,59.6z M32.1,32.6
					c0.5-0.7,1.3-1.2,2.1-1.2h22.6c0.8,0,1.6,0.4,2.1,1.1l5.4,6.3H27L32.1,32.6z M62.4,28.5c-0.9-1.4-2.5-2-4.2-2H32.8
					c-1.7,0-3.3,0.7-4.2,2.1l-7.3,9.5c-1.2,1.9-1,4.2,0.5,5.9l20,20.8c2,2.2,5.5,2.2,7.5,0l20-21.3c1.5-1.7,1.6-4.1,0.4-6L62.4,28.5
					z"/>
			</g>
		</g>
	</g>
</g>
</svg>
