<?xml version="1.0" encoding="utf-8"?>
<!-- Generator: Adobe Illustrator 21.1.0, SVG Export Plug-In . SVG Version: 6.00 Build 0)  -->
<svg version="1.1" id="图层_1" xmlns="http://www.w3.org/2000/svg" xmlns:xlink="http://www.w3.org/1999/xlink" x="0px" y="0px"
	 viewBox="0 0 17 17" style="enable-background:new 0 0 17 17;" xml:space="preserve">
<title>Detail Disclosure Copy</title>
<desc>Created with Sketch.</desc>
<g id="Page-1">
	<g id="租赁设备-进行支付" transform="translate(-108.000000, -311.000000)">
		<g id="con" transform="translate(0.000000, 64.000000)">
			<g id="报修类型" transform="translate(0.000000, 160.000000)">
				<path id="Detail-Disclosure-Copy" d="M116.7,103.5c-4.7,0-8.2-3.6-8.2-7.8c0-4.7,3.6-8.2,8.2-8.2c4.2,0,7.8,3.6,7.8,8.2
					C124.5,99.9,120.9,103.5,116.7,103.5z M116.5,102.5c3.9,0,7-3.1,7-7s-3.1-7-7-7s-7,3.1-7,7S112.6,102.5,116.5,102.5z M115,93.5
					h2.5v6h1v0.5H115v-0.5h1V94h-1V93.5z M116.5,92.5c-0.6,0-1-0.4-1-1s0.4-1,1-1s1,0.4,1,1S117.1,92.5,116.5,92.5z"/>
			</g>
		</g>
	</g>
</g>
</svg>
