<?xml version="1.0" encoding="utf-8"?>
<!-- Generator: Adobe Illustrator 21.1.0, SVG Export Plug-In . SVG Version: 6.00 Build 0)  -->
<svg version="1.1" id="图层_1" xmlns="http://www.w3.org/2000/svg" xmlns:xlink="http://www.w3.org/1999/xlink" x="0px" y="0px"
	 viewBox="0 0 21 21" style="enable-background:new 0 0 21 21;" xml:space="preserve">
<title>Shape</title>
<desc>Created with Sketch.</desc>
<g id="Page-1">
	<g id="菜单页面" transform="translate(-178.000000, -121.000000)">
		<g id="二级菜单" transform="translate(0.000000, 105.000000)">
			<g id="租赁" transform="translate(125.000000, 0.000000)">
				<g id="Shape" transform="translate(53.000000, 16.000000)">
					<path d="M20.3,13.9c-0.3-0.4-1.1-0.8-2.6,0.1c0.1-0.6-0.4-1-0.9-1c-0.5,0-1.1,0.1-1.6,0.6c-0.7-0.9-1.4-0.8-2.8,0.1
						c-0.5,0.3-1,0.6-1.3,0.8c-0.1,0.1-0.2,0.1-0.2,0.1c0.1,0,0.3,0.1,0.4,0.1c1.9,0,3.5,0,3.5,1.7c0,1.3-1.5,1.7-2.3,1.7H9.7
						c-1.5,0-2.9-1.5-2.9-1.5s1.7,0.7,2.9,0.7h2.7c0,0,1.5-0.1,1.5-0.8c0-0.7-0.7-0.8-1.9-0.8c-1.9,0-2.8-0.9-2.8-0.9
						s-1.5-1.1-1.9-1.3c-1.1-0.7-1.7-1-3.6-0.3c-1.2,0.4-3.2,1.4-3.2,1.4l2.4,5.2L4,19c0.7-0.4,1.3-0.4,2.2,0c1,0.5,2.4,0.9,3.3,1.2
						c1.5,0.5,1.7,0.4,2.7-0.2c0.8-0.5,6.6-3.9,7.2-4.3C20.4,15.1,20.7,14.5,20.3,13.9L20.3,13.9z M13,7.9h-1.9v1.5H13V7.9z M13,3.4
						h-1.9v1.4H13V3.4z M13,5.6h-1.9v1.5H13V5.6z M6.1,12h8.9c0.7,0,1.3-0.6,1.3-1.3V1.8c0-0.7-0.6-1.3-1.3-1.3H6.1
						c-0.7,0-1.3,0.6-1.3,1.3v8.9C4.8,11.4,5.3,12,6.1,12z M10.3,2.7h3.6v6.8h0.8v0.8H9.5V9.4h0.9L10.3,2.7L10.3,2.7z M6.5,5.5V4.7
						h1.4V3.5C7.5,3.6,7.1,3.6,6.8,3.7c0-0.2-0.1-0.5-0.2-0.7c1-0.2,2.2-0.4,2.9-0.7L9.9,3C9.5,3.1,9.1,3.2,8.7,3.3v1.4h1.2v0.8H8.7
						v0.1c0.3,0.3,1.1,1.3,1.2,1.5L9.4,7.8C9.3,7.5,9,7,8.7,6.5v3.9H7.9V6.8C7.5,7.6,7.1,8.4,6.8,8.9C6.7,8.7,6.5,8.3,6.3,8.1
						c0.5-0.6,1.1-1.7,1.4-2.6H6.5L6.5,5.5z"/>
				</g>
			</g>
		</g>
	</g>
</g>
</svg>
