<?xml version="1.0" encoding="utf-8"?>
<!-- Generator: Adobe Illustrator 21.1.0, SVG Export Plug-In . SVG Version: 6.00 Build 0)  -->
<svg version="1.1" id="图层_1" xmlns="http://www.w3.org/2000/svg" xmlns:xlink="http://www.w3.org/1999/xlink" x="0px" y="0px"
	 viewBox="0 0 21 21" style="enable-background:new 0 0 21 21;" xml:space="preserve">
<title>Combined Shape</title>
<desc>Created with Sketch.</desc>
<g id="Page-1">
	<g id="机修页面-附近订单页面" transform="translate(-30.000000, -501.000000)">
		<g id="定位-icon" transform="translate(22.000000, 493.000000)">
			<g id="定位" transform="translate(8.000000, 8.000000)">
				<path id="Combined-Shape" d="M10.5,0.5c-5.5,0-10,4.5-10,10s4.5,10,10,10s10-4.5,10-10S16,0.5,10.5,0.5z M11.1,19.3v-4.1
					c0-0.3-0.3-0.6-0.6-0.6c-0.3,0-0.6,0.3-0.6,0.6v4.1C5.5,19,2,15.5,1.7,11.1h4.1c0.3,0,0.6-0.3,0.6-0.6c0-0.3-0.3-0.6-0.6-0.6
					H1.7C2,5.5,5.5,2,9.9,1.7v4.1c0,0.3,0.3,0.6,0.6,0.6c0.3,0,0.6-0.3,0.6-0.6V1.7C15.5,2,19,5.5,19.3,9.9h-4.1
					c-0.3,0-0.6,0.3-0.6,0.6c0,0.3,0.3,0.6,0.6,0.6h4.1C19,15.5,15.5,19,11.1,19.3z M8.6,10.5c0,1,0.8,1.9,1.9,1.9s1.9-0.8,1.9-1.9
					s-0.8-1.9-1.9-1.9S8.6,9.5,8.6,10.5L8.6,10.5z"/>
			</g>
		</g>
	</g>
</g>
</svg>
