<?xml version="1.0" encoding="utf-8"?>
<!-- Generator: Adobe Illustrator 21.1.0, SVG Export Plug-In . SVG Version: 6.00 Build 0)  -->
<svg version="1.1" id="图层_1" xmlns="http://www.w3.org/2000/svg" xmlns:xlink="http://www.w3.org/1999/xlink" x="0px" y="0px"
	 viewBox="0 0 21 21" style="enable-background:new 0 0 21 21;" xml:space="preserve">
<title>Shape</title>
<desc>Created with Sketch.</desc>
<g id="Page-1">
	<g id="用户左框" transform="translate(-66.000000, -601.000000)">
		<g id="Group" transform="translate(66.000000, 601.000000)">
			<g id="消息">
				<path id="Shape" d="M10.5,0.5c-5.5,0-10,4.5-10,10c0,1.9,0.5,3.6,1.4,5.1l-0.7,4.2l4.2-0.7c1.5,0.9,3.3,1.4,5.1,1.4
					c5.5,0,10-4.5,10-10S16,0.5,10.5,0.5z M5.5,11.7c-0.7,0-1.2-0.5-1.2-1.2s0.5-1.2,1.2-1.2s1.2,0.5,1.2,1.2S6.2,11.7,5.5,11.7
					L5.5,11.7z M10.5,11.7c-0.7,0-1.2-0.5-1.2-1.2s0.5-1.2,1.2-1.2s1.2,0.5,1.2,1.2S11.2,11.7,10.5,11.7L10.5,11.7z M15.5,11.7
					c-0.7,0-1.2-0.5-1.2-1.2s0.5-1.2,1.2-1.2c0.7,0,1.2,0.5,1.2,1.2S16.2,11.7,15.5,11.7L15.5,11.7z"/>
			</g>
		</g>
	</g>
</g>
</svg>
