<?xml version="1.0" encoding="utf-8"?>
<!-- Generator: Adobe Illustrator 21.1.0, SVG Export Plug-In . SVG Version: 6.00 Build 0)  -->
<svg version="1.1" id="图层_1" xmlns="http://www.w3.org/2000/svg" xmlns:xlink="http://www.w3.org/1999/xlink" x="0px" y="0px"
	 viewBox="0 0 16 16" style="enable-background:new 0 0 16 16;" xml:space="preserve">
<title>menu</title>
<desc>Created with Sketch.</desc>
<g id="Page-1">
	<g id="机修页面" transform="translate(-340.000000, -77.000000)">
		<g id="con">
			<g id="con-nav" transform="translate(0.000000, 64.000000)">
				<g id="nav" transform="translate(20.000000, 10.000000)">
					<path id="menu" d="M333.2,11.8H331c-1.2,0-2.2,1-2.2,2.2v2.2c0,1.2,1,2.2,2.2,2.2h2.2c1.2,0,2.2-1,2.2-2.2V14
						C335.5,12.8,334.5,11.8,333.2,11.8 M325,11.8h-2.2c-1.2,0-2.2,1-2.2,2.2v2.2c0,1.2,1,2.2,2.2,2.2h2.2c1.2,0,2.2-1,2.2-2.2V14
						C327.2,12.8,326.2,11.8,325,11.8 M333.2,3.5H331c-1.2,0-2.2,1-2.2,2.2V8c0,1.2,1,2.2,2.2,2.2h2.2c1.2,0,2.2-1,2.2-2.2V5.8
						C335.5,4.5,334.5,3.5,333.2,3.5 M327.2,5.8V8c0,1.2-1,2.2-2.2,2.2h-2.2c-1.2,0-2.2-1-2.2-2.2V5.8c0-1.2,1-2.2,2.2-2.2h2.2
						C326.2,3.5,327.2,4.5,327.2,5.8"/>
				</g>
			</g>
		</g>
	</g>
</g>
</svg>
