<?xml version="1.0" encoding="utf-8"?>
<!-- Generator: Adobe Illustrator 21.1.0, SVG Export Plug-In . SVG Version: 6.00 Build 0)  -->
<svg version="1.1" id="图层_1" xmlns="http://www.w3.org/2000/svg" xmlns:xlink="http://www.w3.org/1999/xlink" x="0px" y="0px"
	 viewBox="0 0 54 46" style="enable-background:new 0 0 54 46;" xml:space="preserve">
<title>Combined Shape</title>
<desc>Created with Sketch.</desc>
<g id="Page-1">
	<g id="我的余额" transform="translate(-161.000000, -138.000000)">
		<g id="余额" transform="translate(161.000000, 138.000000)">
			<path id="Combined-Shape" d="M48.6,16.9c-2.6-2.6-5.9-4.2-9.5-4.7V6.5h0c0,0,0-0.1,0-0.1c0-1.8-1.9-3.3-5.4-4.4
				c-3.1-1-7.3-1.5-11.7-1.5C17.7,0.5,13.5,1,10.4,2C6.9,3.1,5,4.6,5,6.4c0,0.1,0,0.2,0,0.4l0,0v4.1C4.6,11,4,11.3,3.4,11.6
				c-1.9,1.1-2.9,2.3-2.9,3.7c0,0.1,0,0.2,0,0.4h0v6.3h0c0,0.9,0.4,1.7,1.2,2.5c0.8,0.7,1.9,1.4,3.3,1.9v5.3h0
				c0,0.9,0.4,1.8,1.3,2.6c2.7,2.6,9.8,4,15.6,4c0.4,0,0.8,0,1.2,0c0.6,0.9,1.3,1.7,2,2.5c3.1,3.2,7.3,4.9,11.8,4.9
				s8.6-1.7,11.8-4.9c3.1-3.2,4.9-7.4,4.9-11.9S51.8,20.1,48.6,16.9L48.6,16.9z M6.9,12V9.2c0.9,0.6,2.1,1.1,3.5,1.6
				c3.1,1,7.3,1.5,11.7,1.5c4.4,0,8.6-0.5,11.7-1.5c1.5-0.5,2.7-1,3.6-1.6V12c-0.2,0-0.3,0-0.5,0c-4.4,0-8.6,1.7-11.8,4.9
				c-0.3,0.3-0.6,0.6-0.8,0.9c-7.4,0.3-14.8-1.6-16.9-3.6c-0.3-0.3-0.5-0.6-0.5-0.8h0v-1.3c0,0,0,0,0,0L6.9,12L6.9,12z M10.9,3.7
				c3-0.9,6.9-1.4,11.2-1.4s8.2,0.5,11.2,1.4c3,0.9,4.1,2,4.1,2.6S36.3,8,33.3,9c-3,0.9-6.9,1.4-11.2,1.4S13.9,9.9,10.9,9
				C7.9,8,6.9,7,6.9,6.4S7.9,4.7,10.9,3.7L10.9,3.7z M5,12.8v0.5h0c0,0.7,0.4,1.4,1,2.1c2.5,2.4,9.6,4.2,16.5,4.2
				c-5.5,0.7-9.8,0.2-12.4-0.4C7,18.6,4.4,17.5,3,16.4c-0.5-0.5-0.7-0.9-0.7-1.1C2.3,14.5,3.5,13.5,5,12.8L5,12.8z M2.9,23
				c-0.3-0.3-0.5-0.6-0.6-0.9l0,0v-4c1.7,1.2,4.3,2.3,7.4,2.9c2.4,0.5,5,0.7,7.6,0.7c1.4,0,2.9-0.1,4.4-0.2
				c-0.7,1.5-1.2,3.1-1.4,4.7c-3.4,0.2-7.3-0.1-10.5-0.7C6.5,25.1,4.1,24.1,2.9,23L2.9,23z M20.2,29.9c-4.6,0.1-9-1.2-11.4-2.5
				c2.9,0.6,6.2,0.9,9.3,0.9c0.7,0,1.4,0,2,0c0,0.2,0,0.4,0,0.6C20.2,29.1,20.2,29.5,20.2,29.9L20.2,29.9z M7.5,32.7
				C7,32.3,6.8,32,6.8,31.6h0v-3.4c1.4,1,3.5,2,5.9,2.6c1.7,0.5,4.1,0.9,6.9,0.9c0.3,0,0.5,0,0.8,0c0.3,1.6,0.8,3.1,1.5,4.6
				C16.2,36.3,9.6,34.8,7.5,32.7L7.5,32.7z M36.8,43.7C28.7,43.7,22,37,22,28.7s6.6-14.9,14.8-14.9s14.8,6.7,14.8,14.9
				S45,43.7,36.8,43.7L36.8,43.7z M40.9,19.5L38,25.1c-0.8,1.5-1.2,2.5-1.4,3h-0.1c-0.5-1.2-2-4.1-4.3-8.6h-2.7l5.1,9.1h-4.2v2h4.9
				v2.8h-4.9v2h4.9v4h2.4v-4h4.7v-2h-4.7v-2.8h4.7v-2h-4l5.1-9.1H40.9L40.9,19.5z"/>
		</g>
	</g>
</g>
</svg>
