<?xml version="1.0" encoding="utf-8"?>
<!-- Generator: Adobe Illustrator 21.1.0, SVG Export Plug-In . SVG Version: 6.00 Build 0)  -->
<svg version="1.1" id="图层_1" xmlns="http://www.w3.org/2000/svg" xmlns:xlink="http://www.w3.org/1999/xlink" x="0px" y="0px"
	 viewBox="0 0 17 17" style="enable-background:new 0 0 17 17;" xml:space="preserve">
<title>Combined Shape</title>
<desc>Created with Sketch.</desc>
<g id="Page-1">
	<g id="用户左框" transform="translate(-30.000000, -524.000000)">
		<g id="暂存工单-copy" transform="translate(30.000000, 522.000000)">
			<path id="Combined-Shape" d="M5.5,4.5h6v-2h-6V4.5z M16.5,2.5v16h-16v-16h4v1h-3v14h14v-14h-3v-1H16.5z M12.3,13.2
				c0.3,0.7-0.2,1.4-0.9,1.4H5.5c-0.7,0-1.2-0.7-0.9-1.4c0.4-1,1.3-1.9,2.3-2.3C6.6,10.4,6.5,10,6.5,9.5c0-1.3,1.2-2.3,2.5-2
				c0.7,0.2,1.3,0.8,1.5,1.5c0.1,0.7-0.1,1.3-0.4,1.7C11,11.2,11.9,12.1,12.3,13.2z M10.9,12.7c-0.5-0.7-1.4-1.2-2.3-1.2
				c0,0,0,0,0,0s0,0,0,0c-1,0-1.8,0.5-2.3,1.2c-0.3,0.3,0,0.8,0.4,0.8h4C10.9,13.5,11.1,13.1,10.9,12.7z M7.5,9.5c0,0.5,0.4,1,1,1
				c0,0,0,0,0,0c0,0,0,0,0,0c0.5,0,1-0.5,1-1c0-0.6-0.5-1-1-1S7.5,9,7.5,9.5z"/>
		</g>
	</g>
</g>
</svg>
