<?xml version="1.0" encoding="utf-8"?>
<!-- Generator: Adobe Illustrator 21.1.0, SVG Export Plug-In . SVG Version: 6.00 Build 0)  -->
<svg version="1.1" id="图层_1" xmlns="http://www.w3.org/2000/svg" xmlns:xlink="http://www.w3.org/1999/xlink" x="0px" y="0px"
	 viewBox="0 0 18 21" style="enable-background:new 0 0 18 21;" xml:space="preserve">
<title>Shape</title>
<desc>Created with Sketch.</desc>
<g id="Page-1">
	<g id="菜单页面" transform="translate(-304.000000, -121.000000)">
		<g id="二级菜单" transform="translate(0.000000, 105.000000)">
			<g id="订单" transform="translate(250.000000, 0.000000)">
				<g id="Shape" transform="translate(54.000000, 16.000000)">
					<path d="M16.3,19.2H4.2V18h9.7c0.7,0,1.2-0.6,1.2-1.2V4.2h1.2V19.2z M3.5,15.5c-0.3,0-0.6-0.3-0.6-0.6c0-0.3,0.3-0.6,0.6-0.6
						H12c0.3,0,0.6,0.3,0.6,0.6c0,0.3-0.3,0.6-0.6,0.6H3.5z M3.5,10.5H12c0.3,0,0.6,0.3,0.6,0.6c0,0.3-0.3,0.6-0.6,0.6H3.5
						c-0.3,0-0.6-0.3-0.6-0.6C2.9,10.8,3.2,10.5,3.5,10.5L3.5,10.5z M3.5,6.7H12c0.3,0,0.6,0.3,0.6,0.6C12.6,7.7,12.4,8,12,8H3.5
						C3.2,8,2.9,7.7,2.9,7.4C2.9,7,3.2,6.7,3.5,6.7L3.5,6.7z M7.1,3H12c0.3,0,0.6,0.3,0.6,0.6c0,0.3-0.3,0.6-0.6,0.6H7.1
						C6.8,4.2,6.5,4,6.5,3.6C6.5,3.3,6.8,3,7.1,3L7.1,3z M16.3,3h-1.2V1.8c0-0.7-0.5-1.3-1.2-1.3H1.7c-0.7,0-1.2,0.6-1.2,1.3v15
						c0,0.7,0.5,1.2,1.2,1.2h1.2v1.2c0,0.7,0.5,1.3,1.2,1.3h12.1c0.7,0,1.2-0.6,1.2-1.3v-15C17.5,3.6,16.9,3,16.3,3L16.3,3z"/>
				</g>
			</g>
		</g>
	</g>
</g>
</svg>
