<?xml version="1.0" encoding="utf-8"?>
<!-- Generator: Adobe Illustrator 21.1.0, SVG Export Plug-In . SVG Version: 6.00 Build 0)  -->
<svg version="1.1" id="图层_1" xmlns="http://www.w3.org/2000/svg" xmlns:xlink="http://www.w3.org/1999/xlink" x="0px" y="0px"
	 viewBox="0 0 12 15" style="enable-background:new 0 0 12 15;" xml:space="preserve">
<title>pause [#1006]</title>
<desc>Created with Sketch.</desc>
<g id="Page-1">
	<g id="维修单详情-播放语音" transform="translate(-337.000000, -331.000000)">
		<g id="报修类型" transform="translate(0.000000, 153.000000)">
			<g id="语音-icon" transform="translate(323.000000, 166.000000)">
				<g id="pause-_x5B__x23_1006_x5D_" transform="translate(3.081081, 3.081081)">
					<path d="M13.6,9.9c-0.9,0-1.7,0.7-1.7,1.6v9.8c0,0.9,0.7,1.6,1.7,1.6s1.7-0.7,1.7-1.6v-9.8C15.3,10.6,14.5,9.9,13.6,9.9
						 M21.9,11.5v9.8c0,0.9-0.7,1.6-1.7,1.6s-1.7-0.7-1.7-1.6v-9.8c0-0.9,0.7-1.6,1.7-1.6S21.9,10.6,21.9,11.5"/>
				</g>
			</g>
		</g>
	</g>
</g>
</svg>
