<?xml version="1.0" encoding="utf-8"?>
<!-- Generator: Adobe Illustrator 21.1.0, SVG Export Plug-In . SVG Version: 6.00 Build 0)  -->
<svg version="1.1" id="图层_1" xmlns="http://www.w3.org/2000/svg" xmlns:xlink="http://www.w3.org/1999/xlink" x="0px" y="0px"
	 viewBox="0 0 15 21" style="enable-background:new 0 0 15 21;" xml:space="preserve">
<title>pin_sharp_circle [#624]</title>
<desc>Created with Sketch.</desc>
<g id="Page-1">
	<g id="企业信息" transform="translate(-15.000000, -383.000000)">
		<g id="公司名称-地址" transform="translate(0.000000, 339.000000)">
			<g id="地址" transform="translate(15.000000, 44.000000)">
				<path id="pin_x5F_sharp_x5F_circle-_x5B__x23_624_x5D_" d="M9.5,7.7c0,1.1-0.9,2-2,2s-2-0.9-2-2s0.9-2,2-2S9.5,6.6,9.5,7.7
					 M7.5,17.5c0,0-5-7-5-10c0-2.8,2.2-5,5-5s5,2.2,5,5C12.5,10.5,7.5,17.5,7.5,17.5 M7.5,0.5c-3.9,0-7,3.1-7,7s7,13,7,13
					s7-9.1,7-13S11.4,0.5,7.5,0.5"/>
			</g>
		</g>
	</g>
</g>
</svg>
