<?xml version="1.0" encoding="utf-8"?>
<!-- Generator: Adobe Illustrator 21.1.0, SVG Export Plug-In . SVG Version: 6.00 Build 0)  -->
<svg version="1.1" id="图层_1" xmlns="http://www.w3.org/2000/svg" xmlns:xlink="http://www.w3.org/1999/xlink" x="0px" y="0px"
	 viewBox="0 0 21 20" style="enable-background:new 0 0 21 20;" xml:space="preserve">
<title>Shape</title>
<desc>Created with Sketch.</desc>
<g id="Page-1">
	<g id="菜单页面" transform="translate(-53.000000, -121.000000)">
		<g id="二级菜单" transform="translate(0.000000, 105.000000)">
			<g id="机修">
				<g id="Shape" transform="translate(53.000000, 16.000000)">
					<path d="M6.3,9.1C6.3,9.1,6.3,9.2,6.3,9.1l1.9,2l0.7-0.7L8.2,9.7L7.8,9.4l1.7-1.7l0.2,0c0.2,0,0.3,0,0.5,0L9,6.4
						c0,0-0.1,0-0.1-0.1c0.4-1.4,0-2.9-1-4s-2.6-1.5-4-1.1l2.3,2.3L5.6,5.9L3.4,6.5L1,4.2c-0.4,1.5,0,3,1.1,4S4.8,9.6,6.3,9.1
						L6.3,9.1z M13.1,10.5c0,0.2,0,0.3,0,0.5l0,0.2L13,11.4l-1.2,1.2L11.4,13l-1.1-1.1l-0.7,0.7l6.1,6.1c0.4,0.4,0.9,0.6,1.4,0.6
						s1-0.2,1.4-0.6c0.8-0.8,0.8-2,0-2.7L13.1,10.5L13.1,10.5z M17.9,18.1l-1,0.3l-0.8-0.8l0.3-1l1-0.3l0.8,0.8L17.9,18.1z
						 M10.4,11.3l1.1,1.1l1.2-1.2c-0.1-0.6,0.1-1.2,0.6-1.6c0.4-0.4,1-0.6,1.6-0.6l5.3-5.3l-2.9-2.9l-5.3,5.3
						c0.1,0.6-0.1,1.2-0.6,1.6c-0.4,0.4-1,0.6-1.6,0.6L8.5,9.4l1.1,1.1l-5.2,5.2l-0.2-0.2l-1,0.8l-1.7,2.6l0.4,0.4l2.6-1.7l0.8-1
						l-0.2-0.2L10.4,11.3z"/>
				</g>
			</g>
		</g>
	</g>
</g>
</svg>
