<?xml version="1.0" encoding="utf-8"?>
<!-- Generator: Adobe Illustrator 21.1.0, SVG Export Plug-In . SVG Version: 6.00 Build 0)  -->
<svg version="1.1" id="图层_1" xmlns="http://www.w3.org/2000/svg" xmlns:xlink="http://www.w3.org/1999/xlink" x="0px" y="0px"
	 viewBox="0 0 50 52" style="enable-background:new 0 0 50 52;" xml:space="preserve">
<title>Combined Shape</title>
<desc>Created with Sketch.</desc>
<g id="Page-1">
	<g id="空白页" transform="translate(-167.000000, -253.000000)">
		<g id="Group" transform="translate(137.000000, 223.000000)">
			<g id="search" transform="translate(30.000000, 30.000000)">
				<path id="Combined-Shape" d="M33.9,40.2c-1.2-1.2-1.2-3.1,0-4.2c1.2-1.2,3.1-1.2,4.2,0l10.1,10.1c1.2,1.2,1.2,3.1,0,4.2
					c-1.2,1.2-3.1,1.2-4.2,0L33.9,40.2z M20.8,40.8c-11,0-20-9-20-20s9-20,20-20s20,9,20,20S31.9,40.8,20.8,40.8z M20.8,38.8
					c9.9,0,18-8.1,18-18s-8.1-18-18-18s-18,8.1-18,18S10.9,38.8,20.8,38.8z"/>
			</g>
		</g>
	</g>
</g>
</svg>
