<?xml version="1.0" encoding="utf-8"?>
<!-- Generator: Adobe Illustrator 21.1.0, SVG Export Plug-In . SVG Version: 6.00 Build 0)  -->
<svg version="1.1" id="图层_1" xmlns="http://www.w3.org/2000/svg" xmlns:xlink="http://www.w3.org/1999/xlink" x="0px" y="0px"
	 viewBox="0 0 13 13" style="enable-background:new 0 0 13 13;" xml:space="preserve">
<title>Loupe</title>
<desc>Created with Sketch.</desc>
<g id="Page-1">
	<g id="选择报修类型" transform="translate(-156.000000, -115.000000)">
		<g id="con" transform="translate(0.000000, 64.000000)">
			<g id="搜索框" transform="translate(0.000000, 35.000000)">
				<g id="Group" transform="translate(156.000000, 13.000000)">
					<path id="Loupe" d="M9,11.3l3.5,3.5l-0.7,0.7L8.3,12c-0.8,0.7-1.9,1.1-3,1.1c-2.6,0-4.8-2.1-4.8-4.8s2.1-4.8,4.8-4.8
						s4.8,2.1,4.8,4.8C10.1,9.5,9.7,10.5,9,11.3z M5.3,12.1c2.1,0,3.8-1.7,3.8-3.8S7.4,4.5,5.3,4.5S1.5,6.2,1.5,8.3
						S3.2,12.1,5.3,12.1z"/>
				</g>
			</g>
		</g>
	</g>
</g>
</svg>
