<?xml version="1.0" encoding="utf-8"?>
<!-- Generator: Adobe Illustrator 21.1.0, SVG Export Plug-In . SVG Version: 6.00 Build 0)  -->
<svg version="1.1" id="图层_1" xmlns="http://www.w3.org/2000/svg" xmlns:xlink="http://www.w3.org/1999/xlink" x="0px" y="0px"
	 viewBox="0 0 21 21" style="enable-background:new 0 0 21 21;" xml:space="preserve">
<title>设置</title>
<desc>Created with Sketch.</desc>
<g id="Page-1">
	<g id="用户左框" transform="translate(-132.000000, -601.000000)">
		<g id="Group" transform="translate(66.000000, 601.000000)">
			<g id="设置" transform="translate(66.000000, 0.000000)">
				<path id="Shape" d="M20.5,9.6c0-0.2-0.1-0.3-0.2-0.5C20.2,9,20,9,19.8,9h-1c-0.4,0-0.9-0.3-1-0.7l-0.5-1.3
					c-0.2-0.4-0.1-0.9,0.2-1.2L18.2,5c0.1-0.1,0.2-0.3,0.2-0.5c0-0.2-0.1-0.4-0.2-0.5L17,2.8c-0.1-0.1-0.3-0.2-0.5-0.2
					c-0.2,0-0.4,0.1-0.5,0.2l-0.7,0.7c-0.3,0.3-0.8,0.4-1.2,0.2l-1.3-0.5c-0.4-0.1-0.7-0.6-0.7-1v-1C12,1,12,0.8,11.8,0.7
					c-0.1-0.1-0.3-0.2-0.5-0.2H9.6c-0.2,0-0.3,0.1-0.5,0.2C9,0.8,9,1,9,1.2v1c0,0.4-0.3,0.9-0.7,1L6.9,3.7C6.6,3.9,6,3.8,5.7,3.5
					L5,2.8C4.9,2.7,4.7,2.6,4.5,2.6C4.3,2.6,4.2,2.7,4,2.8L2.8,4C2.7,4.2,2.6,4.3,2.6,4.5c0,0.2,0.1,0.4,0.2,0.5l0.7,0.7
					C3.8,6,3.9,6.6,3.7,6.9L3.2,8.2C3.1,8.6,2.6,9,2.2,9l-1,0C1,9,0.8,9,0.7,9.2C0.6,9.3,0.5,9.5,0.5,9.6v1.7c0,0.2,0.1,0.3,0.2,0.5
					C0.8,12,1,12,1.2,12h1c0.4,0,0.9,0.3,1,0.7l0.5,1.3c0.2,0.4,0.1,0.9-0.2,1.2L2.8,16c-0.1,0.1-0.2,0.3-0.2,0.5
					c0,0.2,0.1,0.4,0.2,0.5L4,18.2c0.1,0.1,0.3,0.2,0.5,0.2c0.2,0,0.4-0.1,0.5-0.2l0.7-0.7c0.3-0.3,0.8-0.4,1.2-0.2l1.3,0.5
					c0.4,0.1,0.7,0.6,0.7,1v1C9,20,9,20.2,9.2,20.3c0.1,0.1,0.3,0.2,0.5,0.2h1.7c0.2,0,0.3-0.1,0.5-0.2C12,20.2,12,20,12,19.8v-1
					c0-0.4,0.3-0.9,0.7-1l1.3-0.5c0.4-0.2,0.9-0.1,1.2,0.2l0.7,0.7c0.1,0.1,0.3,0.2,0.5,0.2c0.2,0,0.4-0.1,0.5-0.2l1.2-1.2
					c0.1-0.1,0.2-0.3,0.2-0.5c0-0.2-0.1-0.4-0.2-0.5l-0.7-0.7c-0.3-0.3-0.4-0.8-0.2-1.2l0.5-1.3c0.1-0.4,0.6-0.7,1-0.7h1
					c0.2,0,0.3-0.1,0.5-0.2c0.1-0.1,0.2-0.3,0.2-0.5L20.5,9.6L20.5,9.6L20.5,9.6z M14.3,10.5c0,2.1-1.7,3.8-3.8,3.8
					c-2.1,0-3.8-1.7-3.8-3.8c0-2.1,1.7-3.8,3.8-3.8C12.6,6.7,14.3,8.4,14.3,10.5L14.3,10.5z"/>
			</g>
		</g>
	</g>
</g>
</svg>
