<?xml version="1.0" encoding="utf-8"?>
<!-- Generator: Adobe Illustrator 21.1.0, SVG Export Plug-In . SVG Version: 6.00 Build 0)  -->
<svg version="1.1" id="图层_1" xmlns="http://www.w3.org/2000/svg" xmlns:xlink="http://www.w3.org/1999/xlink" x="0px" y="0px"
	 viewBox="0 0 25 42" style="enable-background:new 0 0 25 42;" xml:space="preserve">
<title>speak</title>
<desc>Created with Sketch.</desc>
<g id="Page-1">
	<g id="报修详情-语音报修" transform="translate(-176.000000, -267.000000)">
		<g id="con" transform="translate(0.000000, 78.000000)">
			<g id="语音报修" transform="translate(0.000000, 149.000000)">
				<g id="speak_1_" transform="translate(132.000000, 20.000000)">
					<g id="语音-icon" transform="translate(16.000000, 0.000000)">
						<path id="speak" d="M51.7,40.2c0.4,0,0.8,0.3,0.8,0.8c0,0.1,0,2.8,0,2.9c-0.1,7.3-4,12.4-11.2,12.8V60h6
							c0.4,0,0.8,0.3,0.8,0.8c0,0.4-0.3,0.8-0.8,0.8H33.7c-0.4,0-0.8-0.3-0.8-0.8c0-0.4,0.3-0.8,0.8-0.8h6v-3.3
							c-7.2-0.4-11.1-5.4-11.2-12.8c0-0.1,0-2.8,0-2.9c0-0.4,0.3-0.8,0.8-0.8c0.4,0,0.8,0.3,0.8,0.8c0,0.1,0,2.8,0,2.9
							c0.1,6.8,3.6,11.3,10.5,11.3c6.9,0,10.4-4.5,10.5-11.3c0-0.2,0-2.8,0-2.9C51,40.5,51.3,40.2,51.7,40.2z M40.5,51
							c-4.4,0-7.9-3.5-7.9-7.9V28.4c0-4.3,3.6-7.9,7.9-7.9c4.4,0,7.9,3.5,7.9,7.9v14.8C48.4,47.5,44.9,51,40.5,51z"/>
					</g>
				</g>
			</g>
		</g>
	</g>
</g>
</svg>
