<?xml version="1.0" encoding="utf-8"?>
<!-- Generator: Adobe Illustrator 21.1.0, SVG Export Plug-In . SVG Version: 6.00 Build 0)  -->
<svg version="1.1" id="图层_1" xmlns="http://www.w3.org/2000/svg" xmlns:xlink="http://www.w3.org/1999/xlink" x="0px" y="0px"
	 viewBox="0 0 17 17" style="enable-background:new 0 0 17 17;" xml:space="preserve">
<title>wallet [#1495]</title>
<desc>Created with Sketch.</desc>
<g id="Page-1">
	<g id="用户左框" transform="translate(-30.000000, -389.000000)">
		<g id="我的账户" transform="translate(30.000000, 387.000000)">
			<path id="wallet-_x5B__x23_1495_x5D_" d="M15.5,8.5h-4h-10v6c0,1.2,1,3,3,3h11V8.5z M1.5,7.5h11v-1c0-1.2-0.7-3-2-3h-1h-8V7.5z
				 M16.5,7.5v11H4.4c-2.1,0-3.9-1.7-3.9-3.9V2.5h9.6c2.1,0,3.4,1.9,3.4,4v1H16.5z M11.5,12.9c0-0.8,0.6-1.4,1.4-1.4
				c0.8,0,1.4,0.6,1.4,1.4s-0.6,1.4-1.4,1.4C12.1,14.2,11.5,13.6,11.5,12.9L11.5,12.9z"/>
		</g>
	</g>
</g>
</svg>
