<?xml version="1.0" encoding="utf-8"?>
<!-- Generator: Adobe Illustrator 21.1.0, SVG Export Plug-In . SVG Version: 6.00 Build 0)  -->
<svg version="1.1" id="图层_1" xmlns="http://www.w3.org/2000/svg" xmlns:xlink="http://www.w3.org/1999/xlink" x="0px" y="0px"
	 viewBox="0 0 17 17" style="enable-background:new 0 0 17 17;" xml:space="preserve">
<title>fileboard [#1801] copy</title>
<desc>Created with Sketch.</desc>
<g id="Page-1">
	<g id="用户左框" transform="translate(-30.000000, -479.000000)">
		<g id="暂存工单" transform="translate(30.000000, 477.000000)">
			<path id="fileboard-_x5B__x23_1801_x5D_-copy" d="M5.5,4.5h6v-2h-6V4.5z M16.5,2.5v16h-16v-16h4v1h-3v14h14v-14h-3v-1H16.5z
				 M11,11.2l-0.7,0.7c-0.1,0.1-0.2,0.3-0.1,0.4l0.2,1c0.1,0.3-0.2,0.6-0.5,0.6c-0.1,0-0.1,0-0.2-0.1l-0.9-0.5
				c-0.1,0-0.1-0.1-0.2-0.1s-0.2,0-0.2,0.1l-0.9,0.5c-0.1,0-0.1,0.1-0.2,0.1c-0.3,0-0.5-0.2-0.5-0.6l0.2-1c0-0.2,0-0.3-0.1-0.4
				L6,11.2c-0.3-0.3-0.1-0.7,0.3-0.8l1-0.1c0.2,0,0.3-0.1,0.4-0.3l0.4-0.9c0.1-0.2,0.3-0.3,0.4-0.3s0.3,0.1,0.4,0.3L9.4,10
				c0.1,0.1,0.2,0.2,0.4,0.3l1,0.1C11.1,10.4,11.2,10.9,11,11.2L11,11.2z"/>
		</g>
	</g>
</g>
</svg>
