<?xml version="1.0" encoding="utf-8"?>
<!-- Generator: Adobe Illustrator 21.1.0, SVG Export Plug-In . SVG Version: 6.00 Build 0)  -->
<svg version="1.1" id="图层_1" xmlns="http://www.w3.org/2000/svg" xmlns:xlink="http://www.w3.org/1999/xlink" x="0px" y="0px"
	 viewBox="0 0 20 22" style="enable-background:new 0 0 20 22;" xml:space="preserve">
<title>Combined Shape</title>
<desc>Created with Sketch.</desc>
<g id="Page-1">
	<g id="机修页面-附近订单页面" transform="translate(-335.000000, -389.000000)">
		<g id="维修工单-copy-3" transform="translate(335.000000, 389.000000)">
			<path id="Combined-Shape" d="M15.9,2.8h3c0.4,0,0.6,0.2,0.6,0.6v17.5c0,0.4-0.2,0.6-0.6,0.6H1.1c-0.4,0-0.6-0.2-0.6-0.6V3.4
				c0-0.4,0.2-0.6,0.6-0.6h3V1.1c0-0.3,0.3-0.6,0.6-0.6s0.6,0.3,0.6,0.6v1.8h9.5V1.1c0-0.3,0.3-0.6,0.6-0.6s0.6,0.3,0.6,0.6V2.8z
				 M8.7,6.5c1,0,2.1,0.4,2.9,1.3c1.1,1.2,1.5,2.9,1,4.4l4.3,4.3l0.4,0.4c0.2,0.2,0.2,0.6,0,0.8l-0.4,0.4l-0.8,0.8l-0.4,0.4
				c-0.2,0.2-0.6,0.2-0.8,0l-0.4-0.4l-4.3-4.3c-0.4,0.2-0.9,0.2-1.4,0.2c-1.1,0-2.1-0.4-2.9-1.2c-1.3-1.3-1.6-3.3-0.8-4.8
				c0.1-0.2,0.3-0.4,0.5-0.4c0.2,0,0.3,0.1,0.4,0.2l2,2L8.7,10l-2-2C6.3,7.6,6.4,7.2,6.7,7C7.3,6.7,8,6.5,8.7,6.5z M11.7,12.9
				c-0.4-0.4-0.5-0.8-0.3-1.3c0.4-1.1,0.1-2.3-0.7-3.1C10.2,8,9.4,7.7,8.6,7.7c-0.2,0-0.4,0-0.5,0.1l1.4,1.4c0.5,0.4,0.5,1.2,0,1.7
				l-0.7,0.7c-0.2,0.2-0.5,0.4-0.8,0.4S7.3,11.7,7,11.5l-1.4-1.4c-0.2,1,0.1,1.9,0.8,2.6c0.5,0.6,1.3,0.9,2.1,0.9
				c0.4,0,0.7-0.1,1-0.2c0.2-0.1,0.3-0.1,0.4-0.1c0.3,0,0.6,0.1,0.8,0.4l4.3,4.3l0.8-0.8L11.7,12.9z M1.7,20.3h16.6V4h-2.4v0.6
				c0,0.3-0.3,0.6-0.6,0.6s-0.6-0.3-0.6-0.6V4H5.2v0.6c0,0.3-0.3,0.6-0.6,0.6S4.1,4.9,4.1,4.6V4H1.7V20.3z"/>
		</g>
	</g>
</g>
</svg>
