<?xml version="1.0" encoding="utf-8"?>
<!-- Generator: Adobe Illustrator 21.1.0, SVG Export Plug-In . SVG Version: 6.00 Build 0)  -->
<svg version="1.1" id="图层_1" xmlns="http://www.w3.org/2000/svg" xmlns:xlink="http://www.w3.org/1999/xlink" x="0px" y="0px"
	 viewBox="0 0 16 16" style="enable-background:new 0 0 16 16;" xml:space="preserve">
<title>用户</title>
<desc>Created with Sketch.</desc>
<g id="Page-1">
	<g id="机修页面" transform="translate(-20.000000, -77.000000)">
		<g id="con">
			<g id="con-nav" transform="translate(0.000000, 64.000000)">
				<g id="nav" transform="translate(20.000000, 10.000000)">
					<g id="用户" transform="translate(0.000000, 3.000000)">
						<path id="Shape" d="M12.5,5c0,2.5-2,4.5-4.5,4.5S3.5,7.5,3.5,5c0-2.5,2-4.5,4.5-4.5S12.5,2.5,12.5,5z"/>
						<path id="Shape_1_" d="M11.6,9.5c-1,0.8-2.3,1.2-3.6,1.2c-1.3,0-2.6-0.5-3.6-1.3c-2.7,1-3.9,4.4-3.9,6h15
							C15.5,13.9,14.3,10.5,11.6,9.5L11.6,9.5z"/>
					</g>
				</g>
			</g>
		</g>
	</g>
</g>
</svg>
