<?xml version="1.0" encoding="utf-8"?>
<!-- Generator: Adobe Illustrator 21.1.0, SVG Export Plug-In . SVG Version: 6.00 Build 0)  -->
<svg version="1.1" id="图层_1" xmlns="http://www.w3.org/2000/svg" xmlns:xlink="http://www.w3.org/1999/xlink" x="0px" y="0px"
	 viewBox="0 0 50 61" style="enable-background:new 0 0 50 61;" xml:space="preserve">
<title>Shape</title>
<desc>Created with Sketch.</desc>
<g id="Page-1">
	<g id="错误页面" transform="translate(-163.000000, -244.000000)">
		<g id="挖掘" transform="translate(163.000000, 244.000000)">
			<path id="Shape" d="M22.7,29.1c-0.3-0.1-0.7-0.1-1,0.1c-0.3,0.2-0.5,0.5-0.6,0.8l-1.9,7.1c-0.5,1.7-0.7,3.4-0.7,5
				c-0.5-0.1-1-0.1-1.4-0.1c-3.1,0.1-5.8,1.6-7.6,4.1C9.1,46,8.6,46,8.1,46c-4.4,0.2-7.8,3.9-7.6,8.3c0,0.7,0.7,1.3,1.4,1.2
				c0.7,0,1.3-0.7,1.2-1.4c-0.1-2.9,2.1-5.4,5.1-5.6c0.5,0,1.1,0.1,1.6,0.2c0.6,0.1,1.2-0.1,1.4-0.6c1.2-2.2,3.5-3.5,5.9-3.6
				c3.5-0.1,6.7,2.4,7.3,6c0.1,0.4,0.3,0.8,0.7,1s0.8,0.2,1.2,0c0.5-0.3,1-0.4,1.6-0.5c1.7-0.1,3.2,1,3.7,2.6
				c0.1,0.4,0.4,0.7,0.8,0.9c0.4,0.1,0.8,0.1,1.2-0.1c0.1-0.1,0.1-0.1,0.2-0.1c0.2-0.1,0.3-0.2,0.5-0.3c2.2-0.9,6.6-1.2,9.3,2.5
				c0.3,0.4,0.7,0.6,1,0.6c0.3,0,0.5-0.1,0.7-0.3c0.6-0.4,0.7-1.2,0.3-1.8c-2-2.8-4.6-4-7.2-4.2c1.6-1.8,3.1-4.2,4-7.5l1.9-7.1
				c0.2-0.7-0.2-1.4-0.9-1.6L36.9,33l5.9-22.2l1.6,0.4c2.1,0.6,4.2-0.7,4.8-2.7c0.3-1,0.1-2.1-0.4-3c-0.5-0.9-1.4-1.6-2.3-1.8
				L35.7,0.6c-2.1-0.6-4.2,0.7-4.8,2.7c-0.3,1-0.1,2.1,0.4,3s1.4,1.6,2.3,1.8l1.6,0.4l-5.9,22.2L22.7,29.1L22.7,29.1z M41.6,36.9
				l-1.6,5.8c-1.1,4.1-3.3,7-6.5,8.8c-1.2-1.9-3.3-3.1-5.7-3c-0.4,0-0.8,0.1-1.2,0.1c-0.9-2.7-2.9-4.8-5.5-5.9
				c-0.1-1.6,0.1-3.3,0.5-5l1.6-5.8l5.5,1.4c0,0.1-0.1,0.2-0.1,0.3c-0.1,0.5-0.2,1-0.3,1.6v0.3c0,0.1-0.1,0.2-0.1,0.3
				c0,0.2-0.1,0.3-0.1,0.5v1c0.1,1.3,0.3,2.7,0.6,3.7c0.2,0.5,0.5,1,0.8,1.2c0.3,0.3,0.7,0.4,0.7,0.4c0.3,0.1,0.7-0.1,0.8-0.5
				s-0.1-0.7-0.5-0.8l-0.1-0.1c-0.1-0.1-0.2-0.3-0.3-0.7c-0.2-0.8-0.2-2-0.1-3.1c0.1-0.3,0.1-0.6,0.1-0.9c0-0.1,0.1-0.3,0.1-0.4
				c0.1-0.1,0.1-0.2,0.1-0.3c0.2-0.6,0.3-1.1,0.5-1.5c0.3-0.9,0.5-1.5,0.5-1.5c0-0.1,0-0.1,0.1-0.1l1.5-5.7l2.5,0.7l-1.6,5.8
				c-0.1,0.3-0.1,0.7,0.1,1c0.2,0.3,0.5,0.5,0.8,0.6L41.6,36.9L41.6,36.9z M37.2,6.5l-2.8-0.8c-0.3-0.1-0.6-0.3-0.8-0.6
				c-0.2-0.3-0.2-0.7-0.1-1C33.7,3.4,34.4,3,35,3.2l10.7,2.9c0.3,0.1,0.6,0.3,0.8,0.6c0.2,0.3,0.2,0.7,0.1,1
				c-0.2,0.7-0.9,1.1-1.6,0.9l-2.8-0.8c-0.3-0.1-0.7-0.1-1,0.1c-0.3,0.2-0.5,0.5-0.6,0.8L36.3,25l-2.5-0.7L38.2,8
				C38.3,7.4,37.8,6.7,37.2,6.5L37.2,6.5z M48.4,60.5H22.1c-0.7,0-1.1-0.5-1.1-1.1c0-0.7,0.5-1.1,1.1-1.1h26.3
				c0.7,0,1.1,0.5,1.1,1.1C49.5,60,49,60.5,48.4,60.5z M15.8,60.5H5.7c-0.7,0-1.1-0.5-1.1-1.1c0-0.7,0.5-1.1,1.1-1.1h10.1
				c0.7,0,1.1,0.5,1.1,1.1C17,60,16.5,60.5,15.8,60.5L15.8,60.5z"/>
		</g>
	</g>
</g>
</svg>
