<?xml version="1.0" encoding="utf-8"?>
<!-- Generator: Adobe Illustrator 21.1.0, SVG Export Plug-In . SVG Version: 6.00 Build 0)  -->
<svg version="1.1" id="图层_1" xmlns="http://www.w3.org/2000/svg" xmlns:xlink="http://www.w3.org/1999/xlink" x="0px" y="0px"
	 viewBox="0 0 23 20" style="enable-background:new 0 0 23 20;" xml:space="preserve">
<title>Shape</title>
<desc>Created with Sketch.</desc>
<g id="Page-1">
	<g id="付款页面" transform="translate(-14.000000, -256.000000)">
		<g id="con" transform="translate(0.000000, 64.000000)">
			<g id="企业地址" transform="translate(0.000000, 152.000000)">
				<g id="详细地址" transform="translate(14.000000, 40.000000)">
					<g id="微信-支付">
						<path id="Shape" d="M8.9,12.5c-1.3,0.7-1.5-0.4-1.5-0.4L5.7,8.5C5.1,6.8,6.3,7.7,6.3,7.7s1,0.7,1.8,1.2C8.8,9.3,9.7,9,9.7,9
							l10.8-4.7c-2-2.3-5.3-3.8-9-3.8c-6.1,0-11,4-11,9c0,2.9,1.6,5.4,4.2,7.1L4.2,19c0,0-0.2,0.7,0.6,0.4c0.5-0.2,1.9-1,2.7-1.5
							c1.3,0.4,2.7,0.6,4.1,0.6c6.1,0,11-4,11-9c0-1.4-0.4-2.8-1.2-4C17.9,7.4,9.9,11.9,8.9,12.5z"/>
					</g>
				</g>
			</g>
		</g>
	</g>
</g>
</svg>
