<?xml version="1.0" encoding="utf-8"?>
<!-- Generator: Adobe Illustrator 21.1.0, SVG Export Plug-In . SVG Version: 6.00 Build 0)  -->
<svg version="1.1" id="图层_1" xmlns="http://www.w3.org/2000/svg" xmlns:xlink="http://www.w3.org/1999/xlink" x="0px" y="0px"
	 viewBox="0 0 18 20" style="enable-background:new 0 0 18 20;" xml:space="preserve">
<title>Shape Copy 2</title>
<desc>Created with Sketch.</desc>
<g id="Page-1">
	<g id="机修页面" transform="translate(-65.000000, -305.000000)">
		<g id="维修工" transform="translate(65.000000, 246.000000)">
			<path id="Shape-Copy-2" d="M8.2,78.5c0-0.1,0-0.2,0.1-0.4c0-0.2,0.1-0.4,0.1-0.6c0.1-0.2,0.1-0.4,0.2-0.6
				c0.1-0.2,0.1-0.3,0.1-0.5c-0.1-0.1-0.2-0.2-0.3-0.3c-0.1-0.1-0.1-0.2-0.1-0.3c0-0.1,0-0.2,0.1-0.3c0.1-0.1,0.1-0.2,0.2-0.2
				c0.1-0.1,0.2-0.2,0.3-0.2h0.9c0.1,0.1,0.2,0.2,0.3,0.2c0.1,0.1,0.2,0.2,0.2,0.3c0.1,0.1,0.1,0.2,0.1,0.3c0,0.1,0,0.2-0.1,0.3
				c-0.1,0.1-0.2,0.2-0.3,0.3c0,0.1,0.1,0.3,0.1,0.5c0,0.2,0.1,0.4,0.1,0.6c0,0.2,0.1,0.4,0.1,0.6c0,0.2,0.1,0.3,0.1,0.4
				c0,0,0,0,0,0h7.1c0-0.1,0-0.3,0-0.4c0-0.3,0-0.1,0-0.3c0-0.3-0.1-0.5-0.1-0.7c-0.1-0.3-0.3-0.5-0.5-0.8c-0.3-0.2-0.6-0.3-0.9-0.5
				c-0.3-0.1-1.8-0.7-2.1-0.8c-0.4-0.1-0.7-0.2-1-0.3c-0.3-0.1-0.6-0.3-0.8-0.4c-0.2-0.2-0.3-0.3-0.4-0.5c-0.1-0.2-0.1-0.4-0.1-0.5
				c0-0.2,0-0.4,0-0.5c0-0.1,0.1-0.3,0.1-0.4c0-0.1,0.1-0.2,0.2-0.3c0.1-0.1,0.2-0.1,0.3-0.2c0.1-0.1,0.2-0.1,0.3-0.2
				c0.1-0.1,0.2-0.2,0.3-0.3c0.1-0.1,0.1-0.3,0.2-0.4c0.1-0.2,0.1-0.4,0.2-0.5c0.1,0,0.2-0.1,0.3-0.2c0.1-0.1,0.2-0.2,0.3-0.3
				c0.1-0.1,0.1-0.3,0.2-0.6c0-0.2,0-0.3,0-0.5c0-0.1-0.1-0.2-0.1-0.3c0-0.1-0.1-0.2-0.2-0.2c0-0.2,0-0.5,0-0.7H4.9
				c0,0.2,0,0.5,0,0.7c-0.1,0.1-0.2,0.2-0.2,0.4c0,0.1-0.1,0.3-0.1,0.4c0,0.2,0,0.3,0.1,0.5c0.1,0.2,0.1,0.3,0.2,0.5
				C5,70.1,5,70.2,5.1,70.2c0.1,0.1,0.2,0.1,0.3,0.1c0.1,0.2,0.1,0.4,0.2,0.5c0.1,0.2,0.1,0.3,0.2,0.4c0.1,0.1,0.2,0.3,0.3,0.3
				c0.2,0.2,0.4,0.3,0.6,0.5c0.2,0.2,0.3,0.4,0.3,0.6c0,0.2,0,0.3,0,0.5c0,0.2,0,0.3-0.1,0.4S6.6,74,6.5,74.1
				c-0.1,0.1-0.3,0.3-0.6,0.4c-0.3,0.2-0.7,0.3-1.1,0.5c-0.4,0.1-2.2,0.7-2.6,0.8c-0.4,0.1-0.7,0.3-1,0.5c-0.3,0.2-0.5,0.5-0.5,1
				c-0.1,0.6-0.1,0.8-0.1,1.1L8.2,78.5C8.2,78.5,8.2,78.5,8.2,78.5L8.2,78.5z M13.5,65.3c0-2.2-1.1-4-2.9-4.7
				c-0.3-0.1-0.8,3.9-0.8,3.9v-4.4c0-0.3-0.2-0.6-0.4-0.6H8.7c-0.2,0-0.4,0.3-0.4,0.6v4.4c0,0-0.6-4-0.8-3.9
				c-1.7,0.7-2.9,2.6-2.9,4.7c0,0.6-1-0.2-1,2.2h11C14.5,65.1,13.5,65.9,13.5,65.3L13.5,65.3z"/>
		</g>
	</g>
</g>
</svg>
