<?xml version="1.0" encoding="utf-8"?>
<!-- Generator: Adobe Illustrator 21.1.0, SVG Export Plug-In . SVG Version: 6.00 Build 0)  -->
<svg version="1.1" id="图层_1" xmlns="http://www.w3.org/2000/svg" xmlns:xlink="http://www.w3.org/1999/xlink" x="0px" y="0px"
	 viewBox="0 0 15 15" style="enable-background:new 0 0 15 15;" xml:space="preserve">
<style type="text/css">
	.st0{fill:#030303;}
</style>
<title>Cancel</title>
<desc>Created with Sketch.</desc>
<g id="Page-1">
	<g id="菜单页面" transform="translate(-347.000000, -77.000000)">
		<g id="con">
			<g id="con-nav" transform="translate(0.000000, 64.000000)">
				<g id="nav" transform="translate(20.000000, 10.000000)">
					<path id="Cancel" class="st0" d="M341.3,4.9c0.3-0.3,0.3-0.8,0-1.1c-0.3-0.3-0.8-0.3-1.1,0l-5.6,5.6l-5.6-5.6
						c-0.3-0.3-0.8-0.3-1.1,0c-0.3,0.3-0.3,0.8,0,1.1l5.6,5.6l-5.6,5.6c-0.3,0.3-0.3,0.8,0,1.1c0.3,0.3,0.8,0.3,1.1,0l5.6-5.6
						l5.6,5.6c0.3,0.3,0.8,0.3,1.1,0c0.3-0.3,0.3-0.8,0-1.1l-5.6-5.6L341.3,4.9z"/>
				</g>
			</g>
		</g>
	</g>
</g>
</svg>
